<mxfile host="app.diagrams.net" modified="2023-12-01T16:34:26.849Z" agent="Mozilla/5.0 (X11; Linux x86_64) AppleWebKit/537.36 (KHTML, like Gecko) Chrome/119.0.0.0 Safari/537.36" etag="WpZUNVkbCTTYvVR7FBUY" version="22.1.5" type="github">
  <diagram id="C5RBs43oDa-KdzZeNtuy" name="Page-1">
    <mxGraphModel dx="1434" dy="820" grid="1" gridSize="10" guides="1" tooltips="1" connect="1" arrows="1" fold="1" page="1" pageScale="1" pageWidth="827" pageHeight="1169" math="0" shadow="0">
      <root>
        <mxCell id="WIyWlLk6GJQsqaUBKTNV-0" />
        <mxCell id="WIyWlLk6GJQsqaUBKTNV-1" parent="WIyWlLk6GJQsqaUBKTNV-0" />
        <mxCell id="XWlvoy3zAFqH6eh8wWGu-38" value="" style="edgeStyle=orthogonalEdgeStyle;rounded=0;orthogonalLoop=1;jettySize=auto;html=1;" edge="1" parent="WIyWlLk6GJQsqaUBKTNV-1" source="XWlvoy3zAFqH6eh8wWGu-9" target="XWlvoy3zAFqH6eh8wWGu-20">
          <mxGeometry relative="1" as="geometry" />
        </mxCell>
        <mxCell id="XWlvoy3zAFqH6eh8wWGu-9" value="" style="sketch=0;aspect=fixed;pointerEvents=1;shadow=0;dashed=0;html=1;strokeColor=none;labelPosition=center;verticalLabelPosition=bottom;verticalAlign=top;align=center;fillColor=#00188D;shape=mxgraph.azure.laptop" vertex="1" parent="WIyWlLk6GJQsqaUBKTNV-1">
          <mxGeometry x="134.5" y="180.7" width="131" height="78.6" as="geometry" />
        </mxCell>
        <mxCell id="XWlvoy3zAFqH6eh8wWGu-45" value="" style="edgeStyle=orthogonalEdgeStyle;rounded=0;orthogonalLoop=1;jettySize=auto;html=1;" edge="1" parent="WIyWlLk6GJQsqaUBKTNV-1" source="XWlvoy3zAFqH6eh8wWGu-11" target="XWlvoy3zAFqH6eh8wWGu-24">
          <mxGeometry relative="1" as="geometry" />
        </mxCell>
        <mxCell id="XWlvoy3zAFqH6eh8wWGu-11" value="" style="shape=cylinder3;whiteSpace=wrap;html=1;boundedLbl=1;backgroundOutline=1;size=15;" vertex="1" parent="WIyWlLk6GJQsqaUBKTNV-1">
          <mxGeometry x="560" y="306" width="70" height="90" as="geometry" />
        </mxCell>
        <mxCell id="XWlvoy3zAFqH6eh8wWGu-12" value="Elephant database" style="shape=note;whiteSpace=wrap;html=1;backgroundOutline=1;fontColor=#000000;darkOpacity=0.05;fillColor=#FFF9B2;strokeColor=none;fillStyle=solid;direction=west;gradientDirection=north;gradientColor=#FFF2A1;shadow=1;size=20;pointerEvents=1;" vertex="1" parent="WIyWlLk6GJQsqaUBKTNV-1">
          <mxGeometry x="560" y="410" width="140" height="61.4" as="geometry" />
        </mxCell>
        <mxCell id="XWlvoy3zAFqH6eh8wWGu-14" value="" style="shape=image;html=1;verticalAlign=top;verticalLabelPosition=bottom;labelBackgroundColor=#ffffff;imageAspect=0;aspect=fixed;image=https://cdn3.iconfinder.com/data/icons/animals-105/150/icon_animal_elefante-128.png" vertex="1" parent="WIyWlLk6GJQsqaUBKTNV-1">
          <mxGeometry x="630" y="292" width="118" height="118" as="geometry" />
        </mxCell>
        <mxCell id="XWlvoy3zAFqH6eh8wWGu-15" value="Client&amp;nbsp;" style="text;html=1;align=center;verticalAlign=middle;resizable=0;points=[];autosize=1;strokeColor=none;fillColor=none;" vertex="1" parent="WIyWlLk6GJQsqaUBKTNV-1">
          <mxGeometry x="18.5" y="144.3" width="60" height="30" as="geometry" />
        </mxCell>
        <mxCell id="XWlvoy3zAFqH6eh8wWGu-40" value="" style="edgeStyle=orthogonalEdgeStyle;rounded=0;orthogonalLoop=1;jettySize=auto;html=1;" edge="1" parent="WIyWlLk6GJQsqaUBKTNV-1" source="XWlvoy3zAFqH6eh8wWGu-18" target="XWlvoy3zAFqH6eh8wWGu-23">
          <mxGeometry relative="1" as="geometry" />
        </mxCell>
        <mxCell id="XWlvoy3zAFqH6eh8wWGu-18" value="" style="image;sketch=0;aspect=fixed;html=1;points=[];align=center;fontSize=12;image=img/lib/mscae/Person.svg;" vertex="1" parent="WIyWlLk6GJQsqaUBKTNV-1">
          <mxGeometry x="10" y="85" width="37" height="50" as="geometry" />
        </mxCell>
        <mxCell id="XWlvoy3zAFqH6eh8wWGu-22" value="" style="edgeStyle=orthogonalEdgeStyle;rounded=0;orthogonalLoop=1;jettySize=auto;html=1;" edge="1" parent="WIyWlLk6GJQsqaUBKTNV-1" source="XWlvoy3zAFqH6eh8wWGu-20" target="XWlvoy3zAFqH6eh8wWGu-14">
          <mxGeometry relative="1" as="geometry" />
        </mxCell>
        <mxCell id="XWlvoy3zAFqH6eh8wWGu-20" value="Verification of the user &lt;br&gt;in the database" style="text;html=1;align=center;verticalAlign=middle;resizable=0;points=[];autosize=1;strokeColor=none;fillColor=none;" vertex="1" parent="WIyWlLk6GJQsqaUBKTNV-1">
          <mxGeometry x="470" y="219.3" width="140" height="40" as="geometry" />
        </mxCell>
        <mxCell id="XWlvoy3zAFqH6eh8wWGu-41" value="" style="edgeStyle=orthogonalEdgeStyle;rounded=0;orthogonalLoop=1;jettySize=auto;html=1;" edge="1" parent="WIyWlLk6GJQsqaUBKTNV-1" source="XWlvoy3zAFqH6eh8wWGu-23" target="XWlvoy3zAFqH6eh8wWGu-9">
          <mxGeometry relative="1" as="geometry" />
        </mxCell>
        <mxCell id="XWlvoy3zAFqH6eh8wWGu-23" value="Connection to the web page&amp;nbsp;&lt;br&gt;127.0.0.1" style="text;html=1;align=center;verticalAlign=middle;resizable=0;points=[];autosize=1;strokeColor=none;fillColor=none;" vertex="1" parent="WIyWlLk6GJQsqaUBKTNV-1">
          <mxGeometry x="110" y="90" width="180" height="40" as="geometry" />
        </mxCell>
        <mxCell id="XWlvoy3zAFqH6eh8wWGu-43" value="" style="edgeStyle=orthogonalEdgeStyle;rounded=0;orthogonalLoop=1;jettySize=auto;html=1;" edge="1" parent="WIyWlLk6GJQsqaUBKTNV-1" source="XWlvoy3zAFqH6eh8wWGu-24" target="XWlvoy3zAFqH6eh8wWGu-42">
          <mxGeometry relative="1" as="geometry" />
        </mxCell>
        <mxCell id="XWlvoy3zAFqH6eh8wWGu-48" value="" style="edgeStyle=orthogonalEdgeStyle;rounded=0;orthogonalLoop=1;jettySize=auto;html=1;" edge="1" parent="WIyWlLk6GJQsqaUBKTNV-1" source="XWlvoy3zAFqH6eh8wWGu-24" target="XWlvoy3zAFqH6eh8wWGu-47">
          <mxGeometry relative="1" as="geometry" />
        </mxCell>
        <mxCell id="XWlvoy3zAFqH6eh8wWGu-24" value="check if the user exist&amp;nbsp;&lt;br&gt;" style="text;html=1;align=center;verticalAlign=middle;resizable=0;points=[];autosize=1;strokeColor=none;fillColor=none;" vertex="1" parent="WIyWlLk6GJQsqaUBKTNV-1">
          <mxGeometry x="330" y="336" width="140" height="30" as="geometry" />
        </mxCell>
        <mxCell id="XWlvoy3zAFqH6eh8wWGu-44" value="" style="edgeStyle=orthogonalEdgeStyle;rounded=0;orthogonalLoop=1;jettySize=auto;html=1;" edge="1" parent="WIyWlLk6GJQsqaUBKTNV-1" source="XWlvoy3zAFqH6eh8wWGu-42" target="XWlvoy3zAFqH6eh8wWGu-9">
          <mxGeometry relative="1" as="geometry" />
        </mxCell>
        <mxCell id="XWlvoy3zAFqH6eh8wWGu-42" value="YES ITS EXISTS" style="text;html=1;align=center;verticalAlign=middle;resizable=0;points=[];autosize=1;strokeColor=none;fillColor=none;" vertex="1" parent="WIyWlLk6GJQsqaUBKTNV-1">
          <mxGeometry x="140" y="336" width="120" height="30" as="geometry" />
        </mxCell>
        <mxCell id="XWlvoy3zAFqH6eh8wWGu-46" value="GOING TO THE HOME PAGE" style="text;html=1;align=center;verticalAlign=middle;resizable=0;points=[];autosize=1;strokeColor=none;fillColor=none;" vertex="1" parent="WIyWlLk6GJQsqaUBKTNV-1">
          <mxGeometry x="200" y="288" width="190" height="30" as="geometry" />
        </mxCell>
        <mxCell id="XWlvoy3zAFqH6eh8wWGu-47" value="ERROR&amp;nbsp;" style="text;html=1;align=center;verticalAlign=middle;resizable=0;points=[];autosize=1;strokeColor=none;fillColor=none;" vertex="1" parent="WIyWlLk6GJQsqaUBKTNV-1">
          <mxGeometry x="365" y="446" width="70" height="30" as="geometry" />
        </mxCell>
      </root>
    </mxGraphModel>
  </diagram>
</mxfile>
